<svg width="20" height="23" viewBox="0 0 20 23" fill="none" xmlns="http://www.w3.org/2000/svg">
<path d="M6 11.5H18C18.5521 11.5 19.0234 11.6583 19.4141 11.9749C19.8047 12.2915 20 12.6808 20 13.1429C20 13.6049 19.8021 13.9942 19.4062 14.3108C19.0104 14.6274 18.5417 14.7857 18 14.7857H17.25L17.5625 22.5893C17.5729 22.7005 17.5286 22.7968 17.4297 22.8781C17.3307 22.9594 17.2135 23 17.0781 23H16C15.875 23 15.7656 22.9594 15.6719 22.8781C15.5781 22.7968 15.526 22.7005 15.5156 22.5893L15.2344 14.7857H7L5.40625 22.6021C5.35417 22.8674 5.19271 23 4.92188 23H3.76562C3.63021 23 3.51302 22.9594 3.41406 22.8781C3.3151 22.7968 3.27083 22.7048 3.28125 22.6021L4.76562 14.7857C4.72396 14.7686 4.49479 14.7451 4.07812 14.7151C3.66146 14.6852 3.3151 14.5718 3.03906 14.375C2.76302 14.1782 2.54167 13.8359 2.375 13.3482C2.20833 12.8434 2.07031 12.2016 1.96094 11.423C1.85156 10.6443 1.7474 9.69671 1.64844 8.58008C1.54948 7.46345 1.47917 6.72972 1.4375 6.37891C1.38542 5.89974 1.13281 5.14462 0.679688 4.11356C0.226562 3.0825 0 2.25893 0 1.64286C0 1.24926 0.164062 0.877046 0.492188 0.526228C0.820312 0.175409 1.32292 0 2 0C2.61458 0 3.07292 0.160435 3.375 0.481306C3.67708 0.802176 3.95312 1.3006 4.20312 1.97656C5.15104 4.52641 5.75 7.70089 6 11.5Z" fill="black"/>
</svg>
