<svg width="23" height="23" viewBox="0 0 23 23" fill="none" xmlns="http://www.w3.org/2000/svg">
<path d="M11.3531 20.3933C11.1627 20.3922 10.975 20.3486 10.8036 20.2656C10.6046 20.1536 10.4433 19.9853 10.3398 19.7818C10.2363 19.5783 10.1954 19.3487 10.2222 19.1219V14.8414L3.34778 20.125C3.16411 20.2704 2.943 20.3608 2.71006 20.3857C2.47712 20.4105 2.24191 20.3689 2.03167 20.2656C1.81879 20.1598 1.63963 19.9967 1.51435 19.7947C1.38907 19.5926 1.32263 19.3597 1.32251 19.1219V3.78861C1.32024 3.54873 1.38555 3.31305 1.51096 3.10854C1.63638 2.90404 1.81683 2.73897 2.03167 2.63222C2.24172 2.52812 2.47708 2.48605 2.71019 2.51094C2.94329 2.53584 3.16446 2.62667 3.34778 2.77278L10.2222 8.05639V3.77583C10.1954 3.54911 10.2363 3.31953 10.3398 3.11601C10.4433 2.9125 10.6046 2.74417 10.8036 2.63222C11.016 2.52413 11.2551 2.47988 11.4921 2.50482C11.729 2.52977 11.9537 2.62284 12.1389 2.77278L21.9267 10.4394C22.0794 10.559 22.2029 10.7117 22.2879 10.886C22.3728 11.0604 22.4169 11.2518 22.4169 11.4457C22.4169 11.6396 22.3728 11.831 22.2879 12.0054C22.2029 12.1797 22.0794 12.3324 21.9267 12.4519L12.1389 20.125C11.9141 20.2994 11.6376 20.3939 11.3531 20.3933ZM11.3531 12.2156V19.1219L21.1025 11.4553L11.3147 3.78861L11.3531 10.695L2.55556 3.77583V19.1092L11.3531 12.2156Z" fill="black"/>
</svg>
